<svg width="339" height="124" viewBox="0 0 339 124" fill="none" xmlns="http://www.w3.org/2000/svg">
    <path d="M44.0938 78.4141H58.7891L70.9609 94.5938L74.2266 98.8984L92.6328 123.391H77.9375L65.9141 107.211L62.7969 103.055L44.0938 78.4141ZM44.0938 114.484C34.5443 114.484 26.4049 112.159 19.6758 107.508C12.9466 102.807 8.14714 96.1523 5.27734 87.543C2.40755 78.9336 1.9375 68.7409 3.86719 56.9648C5.79688 45.3867 9.53255 35.4167 15.0742 27.0547C20.6159 18.6927 27.3698 12.2604 35.3359 7.75781C43.3516 3.20573 52.0104 0.929688 61.3125 0.929688C70.862 0.929688 78.9766 3.27995 85.6562 7.98047C92.3359 12.681 97.1107 19.3359 99.9805 27.9453C102.85 36.5547 103.296 46.7721 101.316 58.5977C99.4362 70.1263 95.7253 80.0716 90.1836 88.4336C84.6914 96.7956 77.9622 103.228 69.9961 107.73C62.0299 112.233 53.3958 114.484 44.0938 114.484ZM44.5391 102.016C51.3672 102.016 57.8242 100.284 63.9102 96.8203C70.0456 93.3073 75.2904 88.2109 79.6445 81.5312C84.0482 74.8021 87.0417 66.6133 88.625 56.9648C90.2083 47.4648 89.9857 39.4987 87.957 33.0664C85.9284 26.5846 82.5391 21.6862 77.7891 18.3711C73.0391 15.056 67.3737 13.3984 60.793 13.3984C53.9648 13.3984 47.4831 15.1549 41.3477 18.668C35.2122 22.1315 29.9427 27.2279 25.5391 33.957C21.1849 40.6367 18.1914 48.8503 16.5586 58.5977C15.0247 67.9987 15.2721 75.9401 17.3008 82.4219C19.3789 88.8542 22.793 93.7279 27.543 97.043C32.3424 100.358 38.0078 102.016 44.5391 102.016ZM116.534 44.125L129.968 2.41406H144.663L126.331 44.125H116.534ZM150.232 2.41406H165.67L187.787 54.0703H189.123L228.162 2.41406H243.6L192.834 67.4297L185.264 113H171.904L179.475 67.4297L150.232 2.41406ZM338.38 2.41406L319.974 113H307.06L261.341 26.1641H260.153L245.755 113H232.396L250.653 2.41406H263.716L309.583 89.3984H310.771L325.169 2.41406H338.38Z" fill="black"/>
</svg>
