{
	"asset":{
		"generator":"Khronos glTF Blender I/O v4.0.43",
		"version":"2.0"
	},
	"extensionsUsed":[
		"KHR_materials_unlit"
	],
	"scene":0,
	"scenes":[
		{
			"name":"Scene",
			"nodes":[
				0,
				1,
				2,
				3,
				4,
				5,
				6
			]
		}
	],
	"nodes":[
		{
			"camera":0,
			"name":"Camera",
			"rotation":[
				0.03253265097737312,
				0,
				0,
				0.9994707107543945
			],
			"translation":[
				0,
				10.74988842010498,
				1.2402896881103516
			]
		},
		{
			"mesh":0,
			"name":"Plane",
			"rotation":[
				0,
				0.38320550322532654,
				0,
				0.9236631393432617
			],
			"scale":[
				11.602720260620117,
				11.602720260620117,
				11.602720260620117
			],
			"translation":[
				-0.04838375747203827,
				0.6680284142494202,
				0.18470191955566406
			]
		},
		{
			"mesh":1,
			"name":"Circle.001",
			"translation":[
				0,
				0.6773302555084229,
				0
			]
		},
		{
			"mesh":2,
			"name":"Circle.002",
			"scale":[
				1.0413362979888916,
				1.0413362979888916,
				1.0413362979888916
			],
			"translation":[
				0,
				0.8086984157562256,
				0
			]
		},
		{
			"mesh":3,
			"name":"Cube",
			"scale":[
				0.7097668647766113,
				0.7097668647766113,
				0.7097668647766113
			],
			"translation":[
				0,
				10.539041519165039,
				0
			]
		},
		{
			"mesh":4,
			"name":"Plane.001",
			"rotation":[
				0,
				0.38320550322532654,
				0,
				0.9236631393432617
			],
			"scale":[
				11.602720260620117,
				11.602720260620117,
				11.602720260620117
			],
			"translation":[
				-0.04838375747203827,
				0.6680284142494202,
				0.18470191955566406
			]
		},
		{
			"mesh":5,
			"name":"coastal_cliff_02_LOD2",
			"rotation":[
				0.05096760392189026,
				0.04836035519838333,
				0.004944609012454748,
				0.9975165724754333
			],
			"scale":[
				0.5747074484825134,
				0.5747072100639343,
				0.5747072696685791
			],
			"translation":[
				-1.979617953300476,
				-0.2509162127971649,
				-7.877842903137207
			]
		}
	],
	"cameras":[
		{
			"name":"Camera",
			"perspective":{
				"aspectRatio":1.7777777777777777,
				"yfov":0.5631968779732008,
				"zfar":1000,
				"znear":0.10000000149011612
			},
			"type":"perspective"
		}
	],
	"animations":[
		{
			"channels":[
				{
					"sampler":0,
					"target":{
						"node":0,
						"path":"translation"
					}
				},
				{
					"sampler":1,
					"target":{
						"node":0,
						"path":"rotation"
					}
				},
				{
					"sampler":2,
					"target":{
						"node":0,
						"path":"scale"
					}
				}
			],
			"name":"CameraAction",
			"samplers":[
				{
					"input":28,
					"interpolation":"LINEAR",
					"output":29
				},
				{
					"input":30,
					"interpolation":"STEP",
					"output":31
				},
				{
					"input":30,
					"interpolation":"STEP",
					"output":32
				}
			]
		},
		{
			"channels":[
				{
					"sampler":0,
					"target":{
						"node":4,
						"path":"translation"
					}
				},
				{
					"sampler":1,
					"target":{
						"node":4,
						"path":"rotation"
					}
				},
				{
					"sampler":2,
					"target":{
						"node":4,
						"path":"scale"
					}
				}
			],
			"name":"CubeAction",
			"samplers":[
				{
					"input":28,
					"interpolation":"LINEAR",
					"output":33
				},
				{
					"input":30,
					"interpolation":"STEP",
					"output":34
				},
				{
					"input":30,
					"interpolation":"STEP",
					"output":35
				}
			]
		}
	],
	"materials":[
		{
			"doubleSided":true,
			"extensions":{
				"KHR_materials_unlit":{}
			},
			"name":"Material",
			"pbrMetallicRoughness":{
				"baseColorTexture":{
					"index":0
				},
				"metallicFactor":0,
				"roughnessFactor":0.9
			}
		},
		{
			"doubleSided":true,
			"name":"Material.001",
			"pbrMetallicRoughness":{
				"baseColorFactor":[
					0.8001194596290588,
					0.5186024904251099,
					0.22399631142616272,
					1
				],
				"metallicFactor":0
			}
		},
		{
			"doubleSided":true,
			"name":"water",
			"pbrMetallicRoughness":{}
		},
		{
			"doubleSided":true,
			"extensions":{
				"KHR_materials_unlit":{}
			},
			"name":"sphere",
			"pbrMetallicRoughness":{
				"baseColorTexture":{
					"index":1
				},
				"metallicFactor":0,
				"roughnessFactor":0.9
			}
		},
		{
			"doubleSided":true,
			"extensions":{
				"KHR_materials_unlit":{}
			},
			"name":"coastal_cliff_02",
			"pbrMetallicRoughness":{
				"baseColorTexture":{
					"index":2
				},
				"metallicFactor":0,
				"roughnessFactor":0.9
			}
		}
	],
	"meshes":[
		{
			"name":"Plane",
			"primitives":[
				{
					"attributes":{
						"POSITION":0,
						"NORMAL":1,
						"TEXCOORD_0":2
					},
					"indices":3,
					"material":0
				},
				{
					"attributes":{
						"POSITION":4,
						"NORMAL":5,
						"TEXCOORD_0":6
					},
					"indices":7,
					"material":0
				}
			]
		},
		{
			"name":"Circle.001",
			"primitives":[
				{
					"attributes":{
						"POSITION":8,
						"NORMAL":9,
						"TEXCOORD_0":10
					},
					"indices":11,
					"material":1
				}
			]
		},
		{
			"name":"Circle.002",
			"primitives":[
				{
					"attributes":{
						"POSITION":12,
						"NORMAL":13,
						"TEXCOORD_0":14
					},
					"indices":15,
					"material":2
				}
			]
		},
		{
			"name":"Cube",
			"primitives":[
				{
					"attributes":{
						"POSITION":16,
						"NORMAL":17,
						"TEXCOORD_0":18
					},
					"indices":19,
					"material":3
				}
			]
		},
		{
			"name":"Plane.001",
			"primitives":[
				{
					"attributes":{
						"POSITION":20,
						"NORMAL":21,
						"TEXCOORD_0":22
					},
					"indices":23,
					"material":2
				}
			]
		},
		{
			"name":"coastal_cliff_02_a.003",
			"primitives":[
				{
					"attributes":{
						"POSITION":24,
						"NORMAL":25,
						"TEXCOORD_0":26
					},
					"indices":27,
					"material":4
				}
			]
		}
	],
	"textures":[
		{
			"sampler":0,
			"source":0
		},
		{
			"sampler":0,
			"source":1
		},
		{
			"sampler":0,
			"source":2
		}
	],
	"images":[
		{
			"mimeType":"image/png",
			"name":"Tex",
			"uri":"tex/Tex.png"
		},
		{
			"mimeType":"image/png",
			"name":"sun",
			"uri":"tex/sun.png"
		},
		{
			"mimeType":"image/png",
			"name":"cliff",
			"uri":"tex/cliff.png"
		}
	],
	"accessors":[
		{
			"bufferView":0,
			"componentType":5126,
			"count":859,
			"max":[
				0.5824987292289734,
				0.38860899209976196,
				0.559992790222168
			],
			"min":[
				-0.5540700554847717,
				0.3447454273700714,
				-0.5765759944915771
			],
			"type":"VEC3"
		},
		{
			"bufferView":1,
			"componentType":5126,
			"count":859,
			"type":"VEC3"
		},
		{
			"bufferView":2,
			"componentType":5126,
			"count":859,
			"type":"VEC2"
		},
		{
			"bufferView":3,
			"componentType":5123,
			"count":2550,
			"type":"SCALAR"
		},
		{
			"bufferView":4,
			"componentType":5126,
			"count":146,
			"max":[
				0.5166539549827576,
				0.3447454273700714,
				0.03503134846687317
			],
			"min":[
				-0.028082802891731262,
				7.450580596923828e-09,
				-0.5107178092002869
			],
			"type":"VEC3"
		},
		{
			"bufferView":5,
			"componentType":5126,
			"count":146,
			"type":"VEC3"
		},
		{
			"bufferView":6,
			"componentType":5126,
			"count":146,
			"type":"VEC2"
		},
		{
			"bufferView":7,
			"componentType":5123,
			"count":426,
			"type":"SCALAR"
		},
		{
			"bufferView":8,
			"componentType":5126,
			"count":1032,
			"max":[
				2.666612386703491,
				0.3820294141769409,
				2.666612386703491
			],
			"min":[
				-2.666612386703491,
				-0.6849544644355774,
				-2.666612386703491
			],
			"type":"VEC3"
		},
		{
			"bufferView":9,
			"componentType":5126,
			"count":1032,
			"type":"VEC3"
		},
		{
			"bufferView":10,
			"componentType":5126,
			"count":1032,
			"type":"VEC2"
		},
		{
			"bufferView":11,
			"componentType":5123,
			"count":3072,
			"type":"SCALAR"
		},
		{
			"bufferView":12,
			"componentType":5126,
			"count":32,
			"max":[
				2.1400392055511475,
				0.1835002899169922,
				2.1377015113830566
			],
			"min":[
				-2.140352964401245,
				0.1835002899169922,
				-2.142690658569336
			],
			"type":"VEC3"
		},
		{
			"bufferView":13,
			"componentType":5126,
			"count":32,
			"type":"VEC3"
		},
		{
			"bufferView":14,
			"componentType":5126,
			"count":32,
			"type":"VEC2"
		},
		{
			"bufferView":15,
			"componentType":5123,
			"count":90,
			"type":"SCALAR"
		},
		{
			"bufferView":16,
			"componentType":5126,
			"count":1649,
			"max":[
				0.8395062685012817,
				0.8395062685012817,
				0.8395062685012817
			],
			"min":[
				-0.8395062685012817,
				-0.8395062685012817,
				-0.8395062685012817
			],
			"type":"VEC3"
		},
		{
			"bufferView":17,
			"componentType":5126,
			"count":1649,
			"type":"VEC3"
		},
		{
			"bufferView":18,
			"componentType":5126,
			"count":1649,
			"type":"VEC2"
		},
		{
			"bufferView":19,
			"componentType":5123,
			"count":9216,
			"type":"SCALAR"
		},
		{
			"bufferView":20,
			"componentType":5126,
			"count":4,
			"max":[
				1.2715063095092773,
				7.450580596923828e-09,
				0.5167903900146484
			],
			"min":[
				-0.4959779679775238,
				7.450580596923828e-09,
				-1.2991673946380615
			],
			"type":"VEC3"
		},
		{
			"bufferView":21,
			"componentType":5126,
			"count":4,
			"type":"VEC3"
		},
		{
			"bufferView":22,
			"componentType":5126,
			"count":4,
			"type":"VEC2"
		},
		{
			"bufferView":23,
			"componentType":5123,
			"count":6,
			"type":"SCALAR"
		},
		{
			"bufferView":24,
			"componentType":5126,
			"count":26639,
			"max":[
				20.412269592285156,
				9.827459335327148,
				4.142980098724365
			],
			"min":[
				-20.514549255371094,
				-0.231302410364151,
				-4.494579792022705
			],
			"type":"VEC3"
		},
		{
			"bufferView":25,
			"componentType":5126,
			"count":26639,
			"type":"VEC3"
		},
		{
			"bufferView":26,
			"componentType":5126,
			"count":26639,
			"type":"VEC2"
		},
		{
			"bufferView":27,
			"componentType":5123,
			"count":141492,
			"type":"SCALAR"
		},
		{
			"bufferView":28,
			"componentType":5126,
			"count":100,
			"max":[
				4.166666666666667
			],
			"min":[
				0.041666666666666664
			],
			"type":"SCALAR"
		},
		{
			"bufferView":29,
			"componentType":5126,
			"count":100,
			"type":"VEC3"
		},
		{
			"bufferView":30,
			"componentType":5126,
			"count":2,
			"max":[
				4.166666666666667
			],
			"min":[
				0.041666666666666664
			],
			"type":"SCALAR"
		},
		{
			"bufferView":31,
			"componentType":5126,
			"count":2,
			"type":"VEC4"
		},
		{
			"bufferView":32,
			"componentType":5126,
			"count":2,
			"type":"VEC3"
		},
		{
			"bufferView":33,
			"componentType":5126,
			"count":100,
			"type":"VEC3"
		},
		{
			"bufferView":34,
			"componentType":5126,
			"count":2,
			"type":"VEC4"
		},
		{
			"bufferView":35,
			"componentType":5126,
			"count":2,
			"type":"VEC3"
		}
	],
	"bufferViews":[
		{
			"buffer":0,
			"byteLength":10308,
			"byteOffset":0,
			"target":34962
		},
		{
			"buffer":0,
			"byteLength":10308,
			"byteOffset":10308,
			"target":34962
		},
		{
			"buffer":0,
			"byteLength":6872,
			"byteOffset":20616,
			"target":34962
		},
		{
			"buffer":0,
			"byteLength":5100,
			"byteOffset":27488,
			"target":34963
		},
		{
			"buffer":0,
			"byteLength":1752,
			"byteOffset":32588,
			"target":34962
		},
		{
			"buffer":0,
			"byteLength":1752,
			"byteOffset":34340,
			"target":34962
		},
		{
			"buffer":0,
			"byteLength":1168,
			"byteOffset":36092,
			"target":34962
		},
		{
			"buffer":0,
			"byteLength":852,
			"byteOffset":37260,
			"target":34963
		},
		{
			"buffer":0,
			"byteLength":12384,
			"byteOffset":38112,
			"target":34962
		},
		{
			"buffer":0,
			"byteLength":12384,
			"byteOffset":50496,
			"target":34962
		},
		{
			"buffer":0,
			"byteLength":8256,
			"byteOffset":62880,
			"target":34962
		},
		{
			"buffer":0,
			"byteLength":6144,
			"byteOffset":71136,
			"target":34963
		},
		{
			"buffer":0,
			"byteLength":384,
			"byteOffset":77280,
			"target":34962
		},
		{
			"buffer":0,
			"byteLength":384,
			"byteOffset":77664,
			"target":34962
		},
		{
			"buffer":0,
			"byteLength":256,
			"byteOffset":78048,
			"target":34962
		},
		{
			"buffer":0,
			"byteLength":180,
			"byteOffset":78304,
			"target":34963
		},
		{
			"buffer":0,
			"byteLength":19788,
			"byteOffset":78484,
			"target":34962
		},
		{
			"buffer":0,
			"byteLength":19788,
			"byteOffset":98272,
			"target":34962
		},
		{
			"buffer":0,
			"byteLength":13192,
			"byteOffset":118060,
			"target":34962
		},
		{
			"buffer":0,
			"byteLength":18432,
			"byteOffset":131252,
			"target":34963
		},
		{
			"buffer":0,
			"byteLength":48,
			"byteOffset":149684,
			"target":34962
		},
		{
			"buffer":0,
			"byteLength":48,
			"byteOffset":149732,
			"target":34962
		},
		{
			"buffer":0,
			"byteLength":32,
			"byteOffset":149780,
			"target":34962
		},
		{
			"buffer":0,
			"byteLength":12,
			"byteOffset":149812,
			"target":34963
		},
		{
			"buffer":0,
			"byteLength":319668,
			"byteOffset":149824,
			"target":34962
		},
		{
			"buffer":0,
			"byteLength":319668,
			"byteOffset":469492,
			"target":34962
		},
		{
			"buffer":0,
			"byteLength":213112,
			"byteOffset":789160,
			"target":34962
		},
		{
			"buffer":0,
			"byteLength":282984,
			"byteOffset":1002272,
			"target":34963
		},
		{
			"buffer":0,
			"byteLength":400,
			"byteOffset":1285256
		},
		{
			"buffer":0,
			"byteLength":1200,
			"byteOffset":1285656
		},
		{
			"buffer":0,
			"byteLength":8,
			"byteOffset":1286856
		},
		{
			"buffer":0,
			"byteLength":32,
			"byteOffset":1286864
		},
		{
			"buffer":0,
			"byteLength":24,
			"byteOffset":1286896
		},
		{
			"buffer":0,
			"byteLength":1200,
			"byteOffset":1286920
		},
		{
			"buffer":0,
			"byteLength":32,
			"byteOffset":1288120
		},
		{
			"buffer":0,
			"byteLength":24,
			"byteOffset":1288152
		}
	],
	"samplers":[
		{
			"magFilter":9729,
			"minFilter":9987
		}
	],
	"buffers":[
		{
			"byteLength":1288176,
			"uri":"site2.bin"
		}
	]
}
