{
	"asset":{
		"generator":"Khronos glTF Blender I/O v4.0.43",
		"version":"2.0"
	},
	"extensionsUsed":[
		"KHR_materials_unlit"
	],
	"scene":0,
	"scenes":[
		{
			"name":"Scene",
			"nodes":[
				0,
				1,
				2,
				3
			]
		}
	],
	"nodes":[
		{
			"camera":0,
			"name":"Camera",
			"rotation":[
				0.03253265097737312,
				0,
				0,
				0.9994707107543945
			],
			"translation":[
				0,
				1.7381104230880737,
				9.50462532043457
			]
		},
		{
			"mesh":0,
			"name":"Build",
			"rotation":[
				0,
				0.38320550322532654,
				0,
				0.9236631393432617
			],
			"scale":[
				11.602720260620117,
				11.602720260620117,
				11.602720260620117
			],
			"translation":[
				-0.04838375747203827,
				0.6680284142494202,
				0.18470191955566406
			]
		},
		{
			"mesh":1,
			"name":"Cube",
			"scale":[
				0.7097668051719666,
				0.7097668051719666,
				0.7097668051719666
			],
			"translation":[
				0,
				1.3336901664733887,
				0
			]
		},
		{
			"mesh":2,
			"name":"coastal_cliff_02_LOD2",
			"rotation":[
				0.05096760392189026,
				0.04836035519838333,
				0.004944609012454748,
				0.9975165724754333
			],
			"scale":[
				0.5747074484825134,
				0.5747072100639343,
				0.5747072696685791
			],
			"translation":[
				0.3871326446533203,
				0.09185011684894562,
				-7.890317440032959
			]
		}
	],
	"cameras":[
		{
			"name":"Camera",
			"perspective":{
				"aspectRatio":1.7777777777777777,
				"yfov":0.5631968779732008,
				"zfar":1000,
				"znear":0.10000000149011612
			},
			"type":"perspective"
		}
	],
	"materials":[
		{
			"doubleSided":true,
			"extensions":{
				"KHR_materials_unlit":{}
			},
			"name":"Material",
			"pbrMetallicRoughness":{
				"baseColorTexture":{
					"index":0
				},
				"metallicFactor":0,
				"roughnessFactor":0.9
			}
		},
		{
			"doubleSided":true,
			"extensions":{
				"KHR_materials_unlit":{}
			},
			"name":"sphere",
			"pbrMetallicRoughness":{
				"baseColorTexture":{
					"index":1
				},
				"metallicFactor":0,
				"roughnessFactor":0.9
			}
		},
		{
			"doubleSided":true,
			"extensions":{
				"KHR_materials_unlit":{}
			},
			"name":"coastal_cliff_02",
			"pbrMetallicRoughness":{
				"baseColorTexture":{
					"index":2
				},
				"metallicFactor":0,
				"roughnessFactor":0.9
			}
		}
	],
	"meshes":[
		{
			"name":"Plane",
			"primitives":[
				{
					"attributes":{
						"POSITION":0,
						"NORMAL":1,
						"TEXCOORD_0":2
					},
					"indices":3,
					"material":0
				},
				{
					"attributes":{
						"POSITION":4,
						"NORMAL":5,
						"TEXCOORD_0":6
					},
					"indices":7,
					"material":0
				},
				{
					"attributes":{
						"POSITION":8,
						"NORMAL":9,
						"TEXCOORD_0":10
					},
					"indices":11,
					"material":0
				}
			]
		},
		{
			"name":"Cube",
			"primitives":[
				{
					"attributes":{
						"POSITION":12,
						"NORMAL":13,
						"TEXCOORD_0":14
					},
					"indices":15,
					"material":1
				}
			]
		},
		{
			"name":"coastal_cliff_02_a.003",
			"primitives":[
				{
					"attributes":{
						"POSITION":16,
						"NORMAL":17,
						"TEXCOORD_0":18
					},
					"indices":19,
					"material":2
				}
			]
		}
	],
	"textures":[
		{
			"sampler":0,
			"source":0
		},
		{
			"sampler":0,
			"source":1
		},
		{
			"sampler":0,
			"source":2
		}
	],
	"images":[
		{
			"mimeType":"image/png",
			"name":"Diffuse",
			"uri":"Texture/Diffuse.png"
		},
		{
			"mimeType":"image/png",
			"name":"sun",
			"uri":"Texture/sun.png"
		},
		{
			"mimeType":"image/jpeg",
			"name":"coastal_cliff_02_diff_8k",
			"uri":"Texture/coastal_cliff_02_diff_8k.jpg"
		}
	],
	"accessors":[
		{
			"bufferView":0,
			"componentType":5126,
			"count":1445,
			"max":[
				1,
				0.38860899209976196,
				1
			],
			"min":[
				-1,
				1.4901161193847656e-08,
				-1
			],
			"type":"VEC3"
		},
		{
			"bufferView":1,
			"componentType":5126,
			"count":1445,
			"type":"VEC3"
		},
		{
			"bufferView":2,
			"componentType":5126,
			"count":1445,
			"type":"VEC2"
		},
		{
			"bufferView":3,
			"componentType":5123,
			"count":4305,
			"type":"SCALAR"
		},
		{
			"bufferView":4,
			"componentType":5126,
			"count":785,
			"max":[
				0.24404071271419525,
				0.03372754901647568,
				0.22153474390506744
			],
			"min":[
				-0.21561197936534882,
				1.4901161193847656e-08,
				-0.23811794817447662
			],
			"type":"VEC3"
		},
		{
			"bufferView":5,
			"componentType":5126,
			"count":785,
			"type":"VEC3"
		},
		{
			"bufferView":6,
			"componentType":5126,
			"count":785,
			"type":"VEC2"
		},
		{
			"bufferView":7,
			"componentType":5123,
			"count":2307,
			"type":"SCALAR"
		},
		{
			"bufferView":8,
			"componentType":5126,
			"count":160,
			"max":[
				0.5166539549827576,
				0.3447454273700714,
				0.03503134846687317
			],
			"min":[
				-0.028082802891731262,
				1.4901161193847656e-08,
				-0.5107178092002869
			],
			"type":"VEC3"
		},
		{
			"bufferView":9,
			"componentType":5126,
			"count":160,
			"type":"VEC3"
		},
		{
			"bufferView":10,
			"componentType":5126,
			"count":160,
			"type":"VEC2"
		},
		{
			"bufferView":11,
			"componentType":5123,
			"count":432,
			"type":"SCALAR"
		},
		{
			"bufferView":12,
			"componentType":5126,
			"count":1649,
			"max":[
				0.8395062685012817,
				0.8395062685012817,
				0.8395062685012817
			],
			"min":[
				-0.8395062685012817,
				-0.8395062685012817,
				-0.8395062685012817
			],
			"type":"VEC3"
		},
		{
			"bufferView":13,
			"componentType":5126,
			"count":1649,
			"type":"VEC3"
		},
		{
			"bufferView":14,
			"componentType":5126,
			"count":1649,
			"type":"VEC2"
		},
		{
			"bufferView":15,
			"componentType":5123,
			"count":9216,
			"type":"SCALAR"
		},
		{
			"bufferView":16,
			"componentType":5126,
			"count":26639,
			"max":[
				20.412269592285156,
				9.827459335327148,
				4.142980098724365
			],
			"min":[
				-20.514549255371094,
				-0.231302410364151,
				-4.494579792022705
			],
			"type":"VEC3"
		},
		{
			"bufferView":17,
			"componentType":5126,
			"count":26639,
			"type":"VEC3"
		},
		{
			"bufferView":18,
			"componentType":5126,
			"count":26639,
			"type":"VEC2"
		},
		{
			"bufferView":19,
			"componentType":5123,
			"count":141492,
			"type":"SCALAR"
		}
	],
	"bufferViews":[
		{
			"buffer":0,
			"byteLength":17340,
			"byteOffset":0,
			"target":34962
		},
		{
			"buffer":0,
			"byteLength":17340,
			"byteOffset":17340,
			"target":34962
		},
		{
			"buffer":0,
			"byteLength":11560,
			"byteOffset":34680,
			"target":34962
		},
		{
			"buffer":0,
			"byteLength":8610,
			"byteOffset":46240,
			"target":34963
		},
		{
			"buffer":0,
			"byteLength":9420,
			"byteOffset":54852,
			"target":34962
		},
		{
			"buffer":0,
			"byteLength":9420,
			"byteOffset":64272,
			"target":34962
		},
		{
			"buffer":0,
			"byteLength":6280,
			"byteOffset":73692,
			"target":34962
		},
		{
			"buffer":0,
			"byteLength":4614,
			"byteOffset":79972,
			"target":34963
		},
		{
			"buffer":0,
			"byteLength":1920,
			"byteOffset":84588,
			"target":34962
		},
		{
			"buffer":0,
			"byteLength":1920,
			"byteOffset":86508,
			"target":34962
		},
		{
			"buffer":0,
			"byteLength":1280,
			"byteOffset":88428,
			"target":34962
		},
		{
			"buffer":0,
			"byteLength":864,
			"byteOffset":89708,
			"target":34963
		},
		{
			"buffer":0,
			"byteLength":19788,
			"byteOffset":90572,
			"target":34962
		},
		{
			"buffer":0,
			"byteLength":19788,
			"byteOffset":110360,
			"target":34962
		},
		{
			"buffer":0,
			"byteLength":13192,
			"byteOffset":130148,
			"target":34962
		},
		{
			"buffer":0,
			"byteLength":18432,
			"byteOffset":143340,
			"target":34963
		},
		{
			"buffer":0,
			"byteLength":319668,
			"byteOffset":161772,
			"target":34962
		},
		{
			"buffer":0,
			"byteLength":319668,
			"byteOffset":481440,
			"target":34962
		},
		{
			"buffer":0,
			"byteLength":213112,
			"byteOffset":801108,
			"target":34962
		},
		{
			"buffer":0,
			"byteLength":282984,
			"byteOffset":1014220,
			"target":34963
		}
	],
	"samplers":[
		{
			"magFilter":9729,
			"minFilter":9987
		}
	],
	"buffers":[
		{
			"byteLength":1297204,
			"uri":"Site.bin"
		}
	]
}
