<svg width="184" height="168" viewBox="0 0 184 168" fill="none" xmlns="http://www.w3.org/2000/svg">
    <path d="M39.3125 59.7969H47.0469L53.4531 68.3125L55.1719 70.5781L64.8594 83.4688H57.125L50.7969 74.9531L49.1562 72.7656L39.3125 59.7969ZM39.3125 78.7812C34.2865 78.7812 30.0026 77.5573 26.4609 75.1094C22.9193 72.6354 20.3932 69.1328 18.8828 64.6016C17.3724 60.0703 17.125 54.7057 18.1406 48.5078C19.1562 42.4141 21.1224 37.1667 24.0391 32.7656C26.9557 28.3646 30.5104 24.9792 34.7031 22.6094C38.9219 20.2135 43.4792 19.0156 48.375 19.0156C53.401 19.0156 57.6719 20.2526 61.1875 22.7266C64.7031 25.2005 67.2161 28.7031 68.7266 33.2344C70.237 37.7656 70.4714 43.1432 69.4297 49.3672C68.4401 55.4349 66.487 60.6693 63.5703 65.0703C60.6797 69.4714 57.138 72.8568 52.9453 75.2266C48.7526 77.5964 44.2083 78.7812 39.3125 78.7812ZM39.5469 72.2188C43.1406 72.2188 46.5391 71.3073 49.7422 69.4844C52.9714 67.6354 55.7318 64.9531 58.0234 61.4375C60.3411 57.8958 61.9167 53.5859 62.75 48.5078C63.5833 43.5078 63.4661 39.3151 62.3984 35.9297C61.3307 32.5182 59.5469 29.9401 57.0469 28.1953C54.5469 26.4505 51.5651 25.5781 48.1016 25.5781C44.5078 25.5781 41.0964 26.5026 37.8672 28.3516C34.638 30.1745 31.8646 32.8568 29.5469 36.3984C27.2552 39.9141 25.6797 44.237 24.8203 49.3672C24.013 54.3151 24.1432 58.4948 25.2109 61.9062C26.3047 65.2917 28.1016 67.8568 30.6016 69.6016C33.1276 71.3464 36.1094 72.2188 39.5469 72.2188ZM77.4391 41.75L84.5094 19.7969H92.2438L82.5953 41.75H77.4391ZM93.4563 34.3281H100.8L106.659 67.5312L123.456 34.3281H130.8L108.456 77.0625L105.644 94.3281H98.925L101.816 77.0625L93.4563 34.3281ZM138.028 51.75L133.731 78H127.012L134.278 34.3281H140.762L139.591 41.2031H140.216C141.57 38.9635 143.406 37.1667 145.723 35.8125C148.067 34.4583 150.893 33.7812 154.2 33.7812C157.117 33.7812 159.578 34.3802 161.583 35.5781C163.614 36.776 165.046 38.599 165.88 41.0469C166.739 43.4688 166.856 46.5417 166.231 50.2656L161.544 78H154.825L159.434 50.7344C160.033 47.3229 159.591 44.6536 158.106 42.7266C156.648 40.7995 154.356 39.8229 151.231 39.7969C149.07 39.7969 147.065 40.2656 145.216 41.2031C143.367 42.1406 141.804 43.4948 140.528 45.2656C139.278 47.0365 138.445 49.1979 138.028 51.75Z" fill="white"/>
    <path d="M32.1406 120.555L26.7266 122.031C26.2109 120.695 25.3203 119.43 24.0547 118.234C22.8125 117.016 20.8672 116.406 18.2188 116.406C15.8281 116.406 13.8359 116.969 12.2422 118.094C10.6484 119.195 9.85156 120.578 9.85156 122.242C9.85156 123.742 10.3906 124.938 11.4688 125.828C12.5703 126.719 14.2812 127.445 16.6016 128.008L22.4375 129.414C25.9297 130.258 28.5312 131.559 30.2422 133.316C31.9766 135.074 32.8438 137.312 32.8438 140.031C32.8438 142.281 32.1992 144.297 30.9102 146.078C29.6211 147.859 27.8281 149.266 25.5312 150.297C23.2344 151.328 20.5625 151.844 17.5156 151.844C13.5078 151.844 10.1914 150.965 7.56641 149.207C4.96484 147.449 3.3125 144.906 2.60938 141.578L8.30469 140.172C8.84375 142.281 9.875 143.863 11.3984 144.918C12.9453 145.973 14.9609 146.5 17.4453 146.5C20.2344 146.5 22.4609 145.902 24.125 144.707C25.8125 143.488 26.6562 142.047 26.6562 140.383C26.6562 137.617 24.7109 135.766 20.8203 134.828L14.2812 133.281C10.6719 132.414 8.02344 131.09 6.33594 129.309C4.64844 127.527 3.80469 125.289 3.80469 122.594C3.80469 120.367 4.42578 118.398 5.66797 116.688C6.93359 114.977 8.65625 113.641 10.8359 112.68C13.0156 111.695 15.4766 111.203 18.2188 111.203C22.1328 111.203 25.1914 112.07 27.3945 113.805C29.6211 115.516 31.2031 117.766 32.1406 120.555ZM54.185 111.695V116.828H33.8647V111.695H54.185ZM39.7709 102.344H45.7475V139.75C45.7475 141.789 46.1694 143.289 47.0131 144.25C47.8569 145.188 49.1928 145.656 51.0209 145.656C51.4194 145.656 51.8295 145.633 52.2514 145.586C52.6967 145.539 53.1772 145.469 53.6928 145.375L54.9584 150.789C54.3959 151 53.7045 151.164 52.8842 151.281C52.0873 151.422 51.2788 151.492 50.4584 151.492C47.2944 151.492 44.7163 150.555 42.7241 148.68C40.7553 146.805 39.7709 144.367 39.7709 141.367V102.344ZM83.2606 134.969V111.695H89.2372V151H83.2606V144.32H82.8387C81.9012 146.312 80.4598 148.012 78.5145 149.418C76.5927 150.824 74.1434 151.516 71.1669 151.492C68.7059 151.492 66.5262 150.965 64.6278 149.91C62.7294 148.832 61.2294 147.191 60.1278 144.988C59.0497 142.785 58.5106 140.008 58.5106 136.656V111.695H64.4872V136.305C64.4872 139.141 65.2958 141.414 66.913 143.125C68.5536 144.836 70.6278 145.68 73.1356 145.656C74.6356 145.656 76.1591 145.281 77.7059 144.531C79.2762 143.758 80.5887 142.586 81.6434 141.016C82.7216 139.422 83.2606 137.406 83.2606 134.969ZM110.297 151.844C107.016 151.844 104.121 151.012 101.614 149.348C99.1058 147.684 97.1488 145.328 95.7425 142.281C94.3363 139.211 93.6331 135.602 93.6331 131.453C93.6331 127.328 94.3363 123.754 95.7425 120.73C97.1722 117.684 99.1409 115.34 101.649 113.699C104.157 112.035 107.063 111.203 110.368 111.203C112.946 111.203 114.973 111.625 116.45 112.469C117.95 113.312 119.098 114.273 119.895 115.352C120.692 116.406 121.313 117.273 121.758 117.953H122.25V98.6172H128.227V151H122.461V144.953H121.758C121.313 145.656 120.68 146.559 119.86 147.66C119.039 148.738 117.868 149.711 116.344 150.578C114.844 151.422 112.828 151.844 110.297 151.844ZM111.071 146.43C113.508 146.43 115.559 145.797 117.223 144.531C118.887 143.242 120.153 141.473 121.02 139.223C121.887 136.949 122.321 134.336 122.321 131.383C122.321 128.43 121.899 125.852 121.055 123.648C120.211 121.422 118.946 119.699 117.258 118.48C115.594 117.238 113.532 116.617 111.071 116.617C108.539 116.617 106.43 117.273 104.743 118.586C103.055 119.898 101.789 121.668 100.946 123.895C100.102 126.121 99.68 128.617 99.68 131.383C99.68 134.172 100.102 136.703 100.946 138.977C101.813 141.25 103.09 143.066 104.778 144.426C106.465 145.762 108.563 146.43 111.071 146.43ZM134.521 151V111.695H140.498V151H134.521ZM137.545 105.156C136.373 105.156 135.365 104.758 134.521 103.961C133.678 103.164 133.256 102.203 133.256 101.078C133.256 99.9531 133.678 98.9922 134.521 98.1953C135.365 97.3984 136.373 97 137.545 97C138.717 97 139.724 97.3984 140.568 98.1953C141.412 98.9922 141.834 99.9531 141.834 101.078C141.834 102.203 141.412 103.164 140.568 103.961C139.724 104.758 138.717 105.156 137.545 105.156ZM162.683 151.844C159.144 151.844 156.038 151 153.366 149.312C150.695 147.625 148.609 145.258 147.109 142.211C145.632 139.164 144.894 135.625 144.894 131.594C144.894 127.492 145.632 123.918 147.109 120.871C148.609 117.801 150.695 115.422 153.366 113.734C156.038 112.047 159.144 111.203 162.683 111.203C166.245 111.203 169.363 112.047 172.034 113.734C174.706 115.422 176.792 117.801 178.292 120.871C179.792 123.918 180.542 127.492 180.542 131.594C180.542 135.625 179.792 139.164 178.292 142.211C176.792 145.258 174.706 147.625 172.034 149.312C169.363 151 166.245 151.844 162.683 151.844ZM162.683 146.43C165.402 146.43 167.628 145.738 169.363 144.355C171.097 142.973 172.386 141.156 173.23 138.906C174.073 136.633 174.495 134.195 174.495 131.594C174.495 128.945 174.073 126.484 173.23 124.211C172.386 121.938 171.097 120.109 169.363 118.727C167.628 117.32 165.402 116.617 162.683 116.617C160.011 116.617 157.808 117.32 156.073 118.727C154.339 120.109 153.05 121.938 152.206 124.211C151.363 126.484 150.941 128.945 150.941 131.594C150.941 134.195 151.363 136.633 152.206 138.906C153.05 141.156 154.339 142.973 156.073 144.355C157.808 145.738 160.011 146.43 162.683 146.43Z" fill="white"/>
</svg>
