<svg width="353" height="295" viewBox="0 0 353 295" fill="none" xmlns="http://www.w3.org/2000/svg">
    <path opacity="0.5" d="M143 0.767952L167.498 29.3272L167.787 29.6636L168.155 29.4175L199.45 8.52683L215.335 42.6366L215.522 43.0383L215.943 42.9008L251.714 31.2281L257.806 68.3585L257.878 68.7958L258.321 68.7771L295.914 67.188L291.763 104.585L291.715 105.026L292.146 105.127L328.774 113.74L314.687 148.63L314.522 149.041L314.91 149.255L347.856 167.43L324.878 197.227L324.608 197.578L324.923 197.889L351.744 224.278L321.58 246.771L321.225 247.035L321.445 247.42L340.151 280.068L305.037 293.587L304.623 293.747L304.732 294.176L313.936 330.66L276.477 334.205L276.035 334.246L276.024 334.689L275.044 372.304L238.017 365.61L237.581 365.532L237.45 365.955L226.358 401.91L192.51 385.475L192.112 385.282L191.872 385.654L171.49 417.283L143.332 392.326L143 392.032L142.668 392.326L114.51 417.283L94.1284 385.654L93.8884 385.282L93.4897 385.475L59.6417 401.91L48.5498 365.955L48.4192 365.532L47.9831 365.61L10.9562 372.304L9.9761 334.689L9.96456 334.246L9.52338 334.205L-27.9363 330.66L-18.7318 294.176L-18.6234 293.747L-19.037 293.587L-54.1512 280.068L-35.4448 247.42L-35.2245 247.035L-35.5798 246.771L-65.7443 224.278L-38.9234 197.889L-38.6075 197.578L-38.8781 197.227L-61.8558 167.43L-28.9096 149.255L-28.5215 149.041L-28.6874 148.63L-42.774 113.74L-6.14596 105.127L-5.71457 105.026L-5.76346 104.585L-9.91431 67.188L27.6791 68.7771L28.1219 68.7958L28.1936 68.3585L34.2864 31.2281L70.057 42.9008L70.4783 43.0383L70.6654 42.6366L86.5499 8.52685L117.845 29.4175L118.213 29.6636L118.502 29.3272L143 0.767952Z" stroke="white"/>
</svg>
